# xmcd CD database file
#
# Track frame offsets:
#	150
#	14551
#	29388
#	57770
#	74693
#	90230
#	110208
#	140931
#	159543
#	176497
#	194939
#	211211
#
# Disc length: 3094 seconds
#
# Revision: 0
# Processed by: cddbd v1.5.2PL0 Copyright (c) Steve Scherf et al.
# Submitted via: CDex 2.18
#
DISCID=b80c140c
DTITLE=Alan Godage - The Old Country Church
DYEAR=1900
DGENRE=Country
TTITLE0=The Old Country Church
TTITLE1=Where Do I Go From Here
TTITLE2=Amazing Grace
TTITLE3=One Day At A Time
TTITLE4=Without Him
TTITLE5=Will The Circle Be Unbroken
TTITLE6=How Great Thou Art
TTITLE7=This World Is Not My Home
TTITLE8=I'd Rather Have Jesus
TTITLE9=Just A Closer Walk With Thee
TTITLE10=The Old Rugged Cross
TTITLE11=Precious Memories
EXTD=
EXTT0=
EXTT1=
EXTT2=
EXTT3=
EXTT4=
EXTT5=
EXTT6=
EXTT7=
EXTT8=
EXTT9=
EXTT10=
EXTT11=
PLAYORDER=
